<svg xmlns="http://www.w3.org/2000/svg" xmlns:xlink="http://www.w3.org/1999/xlink" width="500" zoomAndPan="magnify" viewBox="0 0 375 374.999991" height="500" preserveAspectRatio="xMidYMid meet" version="1.0"><defs><g/><clipPath id="7372f20c86"><path d="M 37 145.988281 L 134.25 145.988281 L 134.25 188 L 37 188 Z M 37 145.988281 " clip-rule="nonzero"/></clipPath><clipPath id="caa1320be0"><path d="M 27.75 187 L 125 187 L 125 229 L 27.75 229 Z M 27.75 187 " clip-rule="nonzero"/></clipPath></defs><g clip-path="url(#7372f20c86)"><path fill="#22c55e" d="M 37.667969 187.492188 L 53.703125 187.492188 L 66.324219 171.527344 L 50.292969 171.527344 Z M 118.492188 145.984375 L 84.941406 187.492188 L 100.976562 187.492188 L 134.527344 145.984375 Z M 86.371094 156.414062 L 61.304688 187.492188 L 77.339844 187.492188 L 102.402344 156.414062 L 86.371094 156.414062 " fill-opacity="1" fill-rule="nonzero"/></g><g clip-path="url(#caa1320be0)"><path fill="#374151" d="M 124.613281 187.492188 L 108.578125 187.492188 L 95.957031 203.457031 L 111.988281 203.457031 Z M 43.789062 229 L 77.339844 187.492188 L 61.304688 187.492188 L 27.753906 229 Z M 75.910156 218.570312 L 100.976562 187.492188 L 84.941406 187.492188 L 59.878906 218.570312 L 75.910156 218.570312 " fill-opacity="1" fill-rule="nonzero"/></g><g fill="#374151" fill-opacity="1"><g transform="translate(141.282828, 181.982069)"><g><path d="M 21.859375 -34.734375 C 24.367188 -34.734375 26.515625 -34.273438 28.296875 -33.359375 C 30.078125 -32.453125 31.488281 -31.210938 32.53125 -29.640625 C 33.582031 -28.078125 34.28125 -26.234375 34.625 -24.109375 C 34.96875 -21.984375 34.941406 -19.726562 34.546875 -17.34375 C 34.148438 -14.925781 33.4375 -12.664062 32.40625 -10.5625 C 31.382812 -8.457031 30.117188 -6.617188 28.609375 -5.046875 C 27.109375 -3.472656 25.441406 -2.238281 23.609375 -1.34375 C 21.785156 -0.445312 19.878906 0 17.890625 0 L 2.359375 0 L 7.84375 -34.734375 Z M 17.4375 -6.71875 C 18.84375 -6.71875 20.09375 -7 21.1875 -7.5625 C 22.28125 -8.132812 23.226562 -8.910156 24.03125 -9.890625 C 24.832031 -10.878906 25.484375 -12.007812 25.984375 -13.28125 C 26.492188 -14.550781 26.863281 -15.890625 27.09375 -17.296875 C 27.320312 -18.703125 27.382812 -20.050781 27.28125 -21.34375 C 27.1875 -22.632812 26.894531 -23.769531 26.40625 -24.75 C 25.914062 -25.726562 25.210938 -26.507812 24.296875 -27.09375 C 23.390625 -27.6875 22.234375 -27.984375 20.828125 -27.984375 L 14.203125 -27.984375 L 10.828125 -6.71875 Z M 17.4375 -6.71875 "/></g></g></g><g fill="#374151" fill-opacity="1"><g transform="translate(173.767158, 181.982069)"><g><path d="M 24.15625 -14.015625 C 24.21875 -14.441406 24.3125 -15.070312 24.4375 -15.90625 C 24.570312 -16.738281 24.722656 -17.675781 24.890625 -18.71875 C 25.054688 -19.757812 25.234375 -20.882812 25.421875 -22.09375 C 25.617188 -23.300781 25.816406 -24.492188 26.015625 -25.671875 C 26.441406 -28.453125 26.914062 -31.472656 27.4375 -34.734375 L 34.84375 -34.734375 C 34.25 -31.046875 33.707031 -27.679688 33.21875 -24.640625 C 33.019531 -23.335938 32.816406 -22.039062 32.609375 -20.75 C 32.398438 -19.457031 32.203125 -18.253906 32.015625 -17.140625 C 31.835938 -16.035156 31.679688 -15.070312 31.546875 -14.25 C 31.421875 -13.4375 31.34375 -12.867188 31.3125 -12.546875 C 31.050781 -10.816406 30.429688 -9.148438 29.453125 -7.546875 C 28.472656 -5.941406 27.269531 -4.535156 25.84375 -3.328125 C 24.425781 -2.117188 22.828125 -1.15625 21.046875 -0.4375 C 19.265625 0.28125 17.425781 0.640625 15.53125 0.640625 C 13.664062 0.640625 11.96875 0.28125 10.4375 -0.4375 C 8.90625 -1.15625 7.613281 -2.117188 6.5625 -3.328125 C 5.519531 -4.535156 4.769531 -5.941406 4.3125 -7.546875 C 3.851562 -9.148438 3.753906 -10.816406 4.015625 -12.546875 C 4.078125 -12.898438 4.175781 -13.492188 4.3125 -14.328125 C 4.445312 -15.160156 4.601562 -16.128906 4.78125 -17.234375 C 4.957031 -18.347656 5.148438 -19.550781 5.359375 -20.84375 C 5.578125 -22.132812 5.785156 -23.4375 5.984375 -24.75 C 6.472656 -27.78125 6.992188 -31.109375 7.546875 -34.734375 L 14.9375 -34.734375 C 14.414062 -31.335938 13.925781 -28.238281 13.46875 -25.4375 C 13.28125 -24.226562 13.085938 -23.015625 12.890625 -21.796875 C 12.691406 -20.585938 12.507812 -19.46875 12.34375 -18.4375 C 12.1875 -17.414062 12.039062 -16.507812 11.90625 -15.71875 C 11.78125 -14.9375 11.695312 -14.367188 11.65625 -14.015625 C 11.5 -13.035156 11.507812 -12.113281 11.6875 -11.25 C 11.863281 -10.382812 12.179688 -9.613281 12.640625 -8.9375 C 13.097656 -8.269531 13.675781 -7.738281 14.375 -7.34375 C 15.082031 -6.957031 15.859375 -6.765625 16.703125 -6.765625 C 17.585938 -6.765625 18.4375 -6.957031 19.25 -7.34375 C 20.070312 -7.738281 20.816406 -8.269531 21.484375 -8.9375 C 22.148438 -9.613281 22.71875 -10.382812 23.1875 -11.25 C 23.664062 -12.113281 23.988281 -13.035156 24.15625 -14.015625 Z M 24.15625 -14.015625 "/></g></g></g><g fill="#374151" fill-opacity="1"><g transform="translate(204.144654, 181.982069)"><g><path d="M 38.21875 -34.734375 L 45.234375 -34.734375 L 39.734375 0 L 32.34375 0 L 35.96875 -22.9375 L 25.828125 -11.3125 L 19.890625 -11.3125 L 13.328125 -22.59375 L 9.75 0 L 2.296875 0 L 7.796875 -34.734375 L 14.84375 -34.734375 L 24.0625 -18.71875 Z M 38.21875 -34.734375 "/></g></g></g><g fill="#374151" fill-opacity="1"><g transform="translate(245.2033, 181.982069)"><g><path d="M 22.78125 -34.734375 C 24.15625 -34.734375 25.40625 -34.460938 26.53125 -33.921875 C 27.65625 -33.390625 28.59375 -32.65625 29.34375 -31.71875 C 30.101562 -30.789062 30.632812 -29.695312 30.9375 -28.4375 C 31.25 -27.1875 31.289062 -25.84375 31.0625 -24.40625 C 30.832031 -22.96875 30.359375 -21.617188 29.640625 -20.359375 C 28.921875 -19.097656 28.039062 -17.992188 27 -17.046875 C 25.957031 -16.097656 24.789062 -15.351562 23.5 -14.8125 C 22.207031 -14.28125 20.875 -14.015625 19.5 -14.015625 L 11.90625 -14.015625 L 9.703125 0 L 2.296875 0 L 7.796875 -34.734375 Z M 19.59375 -20.78125 C 20.082031 -20.78125 20.554688 -20.875 21.015625 -21.0625 C 21.472656 -21.257812 21.878906 -21.519531 22.234375 -21.84375 C 22.597656 -22.175781 22.910156 -22.5625 23.171875 -23 C 23.429688 -23.445312 23.597656 -23.914062 23.671875 -24.40625 C 23.828125 -25.382812 23.609375 -26.222656 23.015625 -26.921875 C 22.429688 -27.628906 21.671875 -27.984375 20.734375 -27.984375 L 14.109375 -27.984375 L 12.984375 -20.78125 Z M 19.59375 -20.78125 "/></g></g></g><g fill="#374151" fill-opacity="1"><g transform="translate(272.053071, 181.982069)"><g><path d="M 27.1875 -17.890625 C 28.4375 -17.066406 29.320312 -16.019531 29.84375 -14.75 C 30.363281 -13.476562 30.492188 -12.007812 30.234375 -10.34375 C 29.972656 -8.769531 29.367188 -7.304688 28.421875 -5.953125 C 27.472656 -4.597656 26.210938 -3.398438 24.640625 -2.359375 C 23.242188 -1.410156 21.710938 -0.679688 20.046875 -0.171875 C 18.378906 0.335938 16.660156 0.609375 14.890625 0.640625 C 13.128906 0.640625 11.492188 0.394531 9.984375 -0.09375 C 8.484375 -0.582031 7.179688 -1.316406 6.078125 -2.296875 C 4.441406 -3.671875 3.425781 -5.375 3.03125 -7.40625 L 10.4375 -10.578125 C 10.40625 -10.253906 10.460938 -9.847656 10.609375 -9.359375 C 10.753906 -8.867188 11.039062 -8.394531 11.46875 -7.9375 C 11.894531 -7.476562 12.46875 -7.082031 13.1875 -6.75 C 13.90625 -6.425781 14.832031 -6.265625 15.96875 -6.265625 C 17.832031 -6.265625 19.296875 -6.664062 20.359375 -7.46875 C 21.421875 -8.269531 22.035156 -9.113281 22.203125 -10 C 22.265625 -10.519531 22.15625 -11.007812 21.875 -11.46875 C 21.601562 -11.925781 21.140625 -12.285156 20.484375 -12.546875 C 19.242188 -13.003906 17.921875 -13.382812 16.515625 -13.6875 C 15.109375 -14 13.75 -14.390625 12.4375 -14.859375 C 11.132812 -15.335938 9.96875 -15.96875 8.9375 -16.75 C 7.914062 -17.539062 7.15625 -18.640625 6.65625 -20.046875 C 6.4375 -20.691406 6.304688 -21.34375 6.265625 -22 C 6.234375 -22.65625 6.269531 -23.328125 6.375 -24.015625 C 6.632812 -25.578125 7.238281 -27.09375 8.1875 -28.5625 C 9.132812 -30.03125 10.34375 -31.273438 11.8125 -32.296875 C 13.175781 -33.242188 14.644531 -33.96875 16.21875 -34.46875 C 17.789062 -34.976562 19.40625 -35.234375 21.0625 -35.234375 C 22.726562 -35.234375 24.289062 -34.988281 25.75 -34.5 C 27.207031 -34.007812 28.457031 -33.289062 29.5 -32.34375 C 30.539062 -31.425781 31.304688 -30.394531 31.796875 -29.25 L 25.625 -25.4375 C 25.070312 -26.382812 24.328125 -27.140625 23.390625 -27.703125 C 22.460938 -28.273438 21.363281 -28.5625 20.09375 -28.5625 C 18.320312 -28.5625 16.890625 -28.171875 15.796875 -27.390625 C 14.703125 -26.609375 14.054688 -25.578125 13.859375 -24.296875 C 13.765625 -23.710938 13.953125 -23.191406 14.421875 -22.734375 C 14.898438 -22.273438 15.539062 -21.863281 16.34375 -21.5 C 17.144531 -21.144531 18.054688 -20.828125 19.078125 -20.546875 C 20.109375 -20.273438 21.140625 -20 22.171875 -19.71875 C 23.203125 -19.445312 24.15625 -19.160156 25.03125 -18.859375 C 25.914062 -18.566406 26.632812 -18.242188 27.1875 -17.890625 Z M 27.1875 -17.890625 "/></g></g></g><g fill="#22c55e" fill-opacity="1"><g transform="translate(133.032829, 213.967954)"><g><path d="M 14.09375 -5.109375 C 15.28125 -5.109375 16.441406 -5.378906 17.578125 -5.921875 C 18.710938 -6.460938 19.859375 -7.375 21.015625 -8.65625 L 24.640625 -5.21875 C 23.179688 -3.34375 21.519531 -1.921875 19.65625 -0.953125 C 17.800781 0.00390625 15.882812 0.484375 13.90625 0.484375 C 12.132812 0.484375 10.472656 0.117188 8.921875 -0.609375 C 7.367188 -1.335938 6.015625 -2.316406 4.859375 -3.546875 C 3.710938 -4.785156 2.8125 -6.222656 2.15625 -7.859375 C 1.507812 -9.503906 1.1875 -11.25 1.1875 -13.09375 C 1.1875 -14.945312 1.523438 -16.6875 2.203125 -18.3125 C 2.878906 -19.9375 3.796875 -21.363281 4.953125 -22.59375 C 6.117188 -23.832031 7.488281 -24.8125 9.0625 -25.53125 C 10.644531 -26.25 12.320312 -26.609375 14.09375 -26.609375 C 15.75 -26.609375 17.320312 -26.296875 18.8125 -25.671875 C 20.300781 -25.054688 21.765625 -24.035156 23.203125 -22.609375 L 19.9375 -18.640625 C 18.90625 -19.609375 17.925781 -20.257812 17 -20.59375 C 16.070312 -20.925781 15.101562 -21.09375 14.09375 -21.09375 C 13.082031 -21.09375 12.125 -20.878906 11.21875 -20.453125 C 10.320312 -20.035156 9.539062 -19.46875 8.875 -18.75 C 8.207031 -18.039062 7.679688 -17.195312 7.296875 -16.21875 C 6.921875 -15.25 6.734375 -14.207031 6.734375 -13.09375 C 6.734375 -11.988281 6.921875 -10.953125 7.296875 -9.984375 C 7.679688 -9.023438 8.207031 -8.179688 8.875 -7.453125 C 9.539062 -6.722656 10.320312 -6.148438 11.21875 -5.734375 C 12.125 -5.316406 13.082031 -5.109375 14.09375 -5.109375 Z M 14.09375 -5.109375 "/></g></g></g><g fill="#22c55e" fill-opacity="1"><g transform="translate(158.005086, 213.967954)"><g><path d="M 10.6875 -18.875 C 12 -18.875 13.234375 -18.617188 14.390625 -18.109375 C 15.546875 -17.609375 16.554688 -16.914062 17.421875 -16.03125 C 18.285156 -15.15625 18.96875 -14.132812 19.46875 -12.96875 C 19.976562 -11.800781 20.234375 -10.550781 20.234375 -9.21875 C 20.234375 -7.882812 19.976562 -6.628906 19.46875 -5.453125 C 18.96875 -4.285156 18.285156 -3.265625 17.421875 -2.390625 C 16.554688 -1.515625 15.546875 -0.820312 14.390625 -0.3125 C 13.234375 0.1875 12 0.4375 10.6875 0.4375 C 9.351562 0.4375 8.109375 0.1875 6.953125 -0.3125 C 5.796875 -0.820312 4.785156 -1.515625 3.921875 -2.390625 C 3.054688 -3.265625 2.367188 -4.285156 1.859375 -5.453125 C 1.359375 -6.628906 1.109375 -7.882812 1.109375 -9.21875 C 1.109375 -10.550781 1.359375 -11.800781 1.859375 -12.96875 C 2.367188 -14.132812 3.054688 -15.15625 3.921875 -16.03125 C 4.785156 -16.914062 5.796875 -17.609375 6.953125 -18.109375 C 8.109375 -18.617188 9.351562 -18.875 10.6875 -18.875 Z M 10.6875 -4.03125 C 11.3125 -4.03125 11.882812 -4.148438 12.40625 -4.390625 C 12.9375 -4.640625 13.40625 -4.976562 13.8125 -5.40625 C 14.226562 -5.84375 14.550781 -6.363281 14.78125 -6.96875 C 15.019531 -7.570312 15.140625 -8.242188 15.140625 -8.984375 C 15.140625 -9.722656 15.019531 -10.414062 14.78125 -11.0625 C 14.550781 -11.707031 14.226562 -12.269531 13.8125 -12.75 C 13.40625 -13.226562 12.9375 -13.609375 12.40625 -13.890625 C 11.882812 -14.171875 11.3125 -14.3125 10.6875 -14.3125 C 10.070312 -14.3125 9.492188 -14.171875 8.953125 -13.890625 C 8.410156 -13.609375 7.9375 -13.226562 7.53125 -12.75 C 7.125 -12.269531 6.800781 -11.707031 6.5625 -11.0625 C 6.332031 -10.414062 6.21875 -9.722656 6.21875 -8.984375 C 6.21875 -8.242188 6.332031 -7.570312 6.5625 -6.96875 C 6.800781 -6.363281 7.125 -5.84375 7.53125 -5.40625 C 7.9375 -4.976562 8.410156 -4.640625 8.953125 -4.390625 C 9.492188 -4.148438 10.070312 -4.03125 10.6875 -4.03125 Z M 10.6875 -4.03125 "/></g></g></g><g fill="#22c55e" fill-opacity="1"><g transform="translate(178.500815, 213.967954)"><g><path d="M 1.8125 -27.046875 L 6.921875 -27.046875 L 6.921875 0 L 1.8125 0 Z M 1.8125 -27.046875 "/></g></g></g><g fill="#22c55e" fill-opacity="1"><g transform="translate(186.15892, 213.967954)"><g><path d="M 1.8125 -27.046875 L 6.921875 -27.046875 L 6.921875 0 L 1.8125 0 Z M 1.8125 -27.046875 "/></g></g></g><g fill="#22c55e" fill-opacity="1"><g transform="translate(193.817026, 213.967954)"><g><path d="M 10.734375 -18.875 C 12.109375 -18.875 13.363281 -18.59375 14.5 -18.03125 C 15.632812 -17.476562 16.609375 -16.75 17.421875 -15.84375 C 18.234375 -14.945312 18.863281 -13.910156 19.3125 -12.734375 C 19.757812 -11.566406 19.984375 -10.367188 19.984375 -9.140625 C 19.984375 -8.398438 19.882812 -7.609375 19.6875 -6.765625 L 6.59375 -6.765625 C 7.082031 -5.929688 7.78125 -5.222656 8.6875 -4.640625 C 9.601562 -4.066406 10.59375 -3.78125 11.65625 -3.78125 C 12.71875 -3.78125 13.648438 -3.863281 14.453125 -4.03125 C 15.253906 -4.207031 16.007812 -4.429688 16.71875 -4.703125 L 18.421875 -1.546875 C 17.515625 -0.910156 16.472656 -0.421875 15.296875 -0.078125 C 14.128906 0.265625 12.878906 0.4375 11.546875 0.4375 C 10.085938 0.4375 8.726562 0.1875 7.46875 -0.3125 C 6.21875 -0.820312 5.125 -1.503906 4.1875 -2.359375 C 3.25 -3.222656 2.503906 -4.25 1.953125 -5.4375 C 1.410156 -6.625 1.140625 -7.882812 1.140625 -9.21875 C 1.140625 -10.519531 1.382812 -11.753906 1.875 -12.921875 C 2.375 -14.097656 3.0625 -15.125 3.9375 -16 C 4.8125 -16.875 5.828125 -17.570312 6.984375 -18.09375 C 8.148438 -18.613281 9.398438 -18.875 10.734375 -18.875 Z M 14.90625 -10.734375 C 14.613281 -11.796875 14.082031 -12.65625 13.3125 -13.3125 C 12.550781 -13.976562 11.691406 -14.3125 10.734375 -14.3125 C 9.742188 -14.3125 8.847656 -13.976562 8.046875 -13.3125 C 7.242188 -12.65625 6.695312 -11.796875 6.40625 -10.734375 Z M 14.90625 -10.734375 "/></g></g></g><g fill="#22c55e" fill-opacity="1"><g transform="translate(215.089685, 213.967954)"><g><path d="M 10.6875 -14.3125 C 10.070312 -14.3125 9.492188 -14.171875 8.953125 -13.890625 C 8.410156 -13.609375 7.9375 -13.226562 7.53125 -12.75 C 7.125 -12.269531 6.800781 -11.707031 6.5625 -11.0625 C 6.332031 -10.414062 6.21875 -9.722656 6.21875 -8.984375 C 6.21875 -8.242188 6.332031 -7.570312 6.5625 -6.96875 C 6.800781 -6.363281 7.125 -5.84375 7.53125 -5.40625 C 7.9375 -4.976562 8.410156 -4.640625 8.953125 -4.390625 C 9.492188 -4.148438 10.070312 -4.03125 10.6875 -4.03125 C 11.457031 -4.03125 12.203125 -4.207031 12.921875 -4.5625 C 13.648438 -4.925781 14.273438 -5.425781 14.796875 -6.0625 L 17.9375 -2.953125 C 17.082031 -1.921875 16.023438 -1.097656 14.765625 -0.484375 C 13.503906 0.128906 12.144531 0.4375 10.6875 0.4375 C 9.351562 0.4375 8.109375 0.1875 6.953125 -0.3125 C 5.796875 -0.820312 4.785156 -1.515625 3.921875 -2.390625 C 3.054688 -3.265625 2.367188 -4.285156 1.859375 -5.453125 C 1.359375 -6.628906 1.109375 -7.882812 1.109375 -9.21875 C 1.109375 -10.550781 1.359375 -11.800781 1.859375 -12.96875 C 2.367188 -14.132812 3.054688 -15.15625 3.921875 -16.03125 C 4.785156 -16.914062 5.796875 -17.609375 6.953125 -18.109375 C 8.109375 -18.617188 9.351562 -18.875 10.6875 -18.875 C 12.195312 -18.875 13.59375 -18.550781 14.875 -17.90625 C 16.15625 -17.269531 17.238281 -16.394531 18.125 -15.28125 L 14.578125 -12.546875 C 13.859375 -13.210938 13.207031 -13.671875 12.625 -13.921875 C 12.050781 -14.179688 11.40625 -14.3125 10.6875 -14.3125 Z M 10.6875 -14.3125 "/></g></g></g><g fill="#22c55e" fill-opacity="1"><g transform="translate(233.402646, 213.967954)"><g><path d="M 8.4375 -6.59375 C 8.4375 -5.726562 8.703125 -5.0625 9.234375 -4.59375 C 9.765625 -4.125 10.460938 -3.890625 11.328125 -3.890625 C 12.015625 -3.890625 12.703125 -4.023438 13.390625 -4.296875 L 13.390625 0 C 12.773438 0.195312 12.117188 0.363281 11.421875 0.5 C 10.734375 0.632812 10.046875 0.703125 9.359375 0.703125 C 8.566406 0.703125 7.8125 0.601562 7.09375 0.40625 C 6.382812 0.207031 5.742188 -0.128906 5.171875 -0.609375 C 4.609375 -1.085938 4.160156 -1.726562 3.828125 -2.53125 C 3.492188 -3.332031 3.328125 -4.328125 3.328125 -5.515625 L 3.328125 -13.796875 L 0.703125 -13.796875 L 0.703125 -17.234375 L 3.328125 -18.359375 L 3.328125 -22.453125 L 8.4375 -22.453125 L 8.4375 -18.359375 L 13.390625 -18.359375 L 13.390625 -13.796875 L 8.4375 -13.796875 Z M 8.4375 -6.59375 "/></g></g></g><g fill="#22c55e" fill-opacity="1"><g transform="translate(246.832126, 213.967954)"><g><path d="M 7.21875 0 L 2.109375 0 L 2.109375 -18.359375 L 7.21875 -18.359375 Z M 4.65625 -20.875 C 3.875 -20.875 3.207031 -21.144531 2.65625 -21.6875 C 2.113281 -22.226562 1.84375 -22.894531 1.84375 -23.6875 C 1.84375 -24.46875 2.113281 -25.132812 2.65625 -25.6875 C 3.207031 -26.25 3.875 -26.53125 4.65625 -26.53125 C 5.445312 -26.53125 6.113281 -26.25 6.65625 -25.6875 C 7.195312 -25.132812 7.46875 -24.46875 7.46875 -23.6875 C 7.46875 -22.894531 7.195312 -22.226562 6.65625 -21.6875 C 6.113281 -21.144531 5.445312 -20.875 4.65625 -20.875 Z M 4.65625 -20.875 "/></g></g></g><g fill="#22c55e" fill-opacity="1"><g transform="translate(255.452124, 213.967954)"><g><path d="M 10.6875 -18.875 C 12 -18.875 13.234375 -18.617188 14.390625 -18.109375 C 15.546875 -17.609375 16.554688 -16.914062 17.421875 -16.03125 C 18.285156 -15.15625 18.96875 -14.132812 19.46875 -12.96875 C 19.976562 -11.800781 20.234375 -10.550781 20.234375 -9.21875 C 20.234375 -7.882812 19.976562 -6.628906 19.46875 -5.453125 C 18.96875 -4.285156 18.285156 -3.265625 17.421875 -2.390625 C 16.554688 -1.515625 15.546875 -0.820312 14.390625 -0.3125 C 13.234375 0.1875 12 0.4375 10.6875 0.4375 C 9.351562 0.4375 8.109375 0.1875 6.953125 -0.3125 C 5.796875 -0.820312 4.785156 -1.515625 3.921875 -2.390625 C 3.054688 -3.265625 2.367188 -4.285156 1.859375 -5.453125 C 1.359375 -6.628906 1.109375 -7.882812 1.109375 -9.21875 C 1.109375 -10.550781 1.359375 -11.800781 1.859375 -12.96875 C 2.367188 -14.132812 3.054688 -15.15625 3.921875 -16.03125 C 4.785156 -16.914062 5.796875 -17.609375 6.953125 -18.109375 C 8.109375 -18.617188 9.351562 -18.875 10.6875 -18.875 Z M 10.6875 -4.03125 C 11.3125 -4.03125 11.882812 -4.148438 12.40625 -4.390625 C 12.9375 -4.640625 13.40625 -4.976562 13.8125 -5.40625 C 14.226562 -5.84375 14.550781 -6.363281 14.78125 -6.96875 C 15.019531 -7.570312 15.140625 -8.242188 15.140625 -8.984375 C 15.140625 -9.722656 15.019531 -10.414062 14.78125 -11.0625 C 14.550781 -11.707031 14.226562 -12.269531 13.8125 -12.75 C 13.40625 -13.226562 12.9375 -13.609375 12.40625 -13.890625 C 11.882812 -14.171875 11.3125 -14.3125 10.6875 -14.3125 C 10.070312 -14.3125 9.492188 -14.171875 8.953125 -13.890625 C 8.410156 -13.609375 7.9375 -13.226562 7.53125 -12.75 C 7.125 -12.269531 6.800781 -11.707031 6.5625 -11.0625 C 6.332031 -10.414062 6.21875 -9.722656 6.21875 -8.984375 C 6.21875 -8.242188 6.332031 -7.570312 6.5625 -6.96875 C 6.800781 -6.363281 7.125 -5.84375 7.53125 -5.40625 C 7.9375 -4.976562 8.410156 -4.640625 8.953125 -4.390625 C 9.492188 -4.148438 10.070312 -4.03125 10.6875 -4.03125 Z M 10.6875 -4.03125 "/></g></g></g><g fill="#22c55e" fill-opacity="1"><g transform="translate(275.947851, 213.967954)"><g><path d="M 11.21875 -18.359375 C 11.90625 -18.359375 12.664062 -18.257812 13.5 -18.0625 C 14.34375 -17.863281 15.132812 -17.488281 15.875 -16.9375 C 16.613281 -16.394531 17.234375 -15.644531 17.734375 -14.6875 C 18.242188 -13.726562 18.5 -12.484375 18.5 -10.953125 L 18.5 0 L 13.359375 0 L 13.359375 -10.765625 C 13.359375 -11.335938 13.265625 -11.816406 13.078125 -12.203125 C 12.890625 -12.597656 12.640625 -12.910156 12.328125 -13.140625 C 12.023438 -13.378906 11.675781 -13.554688 11.28125 -13.671875 C 10.882812 -13.785156 10.488281 -13.84375 10.09375 -13.84375 C 9.78125 -13.84375 9.429688 -13.785156 9.046875 -13.671875 C 8.660156 -13.554688 8.300781 -13.375 7.96875 -13.125 C 7.632812 -12.882812 7.359375 -12.566406 7.140625 -12.171875 C 6.921875 -11.773438 6.8125 -11.304688 6.8125 -10.765625 L 6.8125 0 L 1.703125 0 L 1.703125 -18.359375 L 6.0625 -18.359375 L 6.8125 -16.953125 C 7.40625 -17.367188 8.070312 -17.707031 8.8125 -17.96875 C 9.550781 -18.226562 10.351562 -18.359375 11.21875 -18.359375 Z M 11.21875 -18.359375 "/></g></g></g><g fill="#22c55e" fill-opacity="1"><g transform="translate(295.22271, 213.967954)"><g><path d="M 13.3125 -9.625 C 14.675781 -8.65625 15.359375 -7.285156 15.359375 -5.515625 C 15.359375 -4.703125 15.164062 -3.9375 14.78125 -3.21875 C 14.394531 -2.5 13.867188 -1.867188 13.203125 -1.328125 C 12.535156 -0.785156 11.757812 -0.359375 10.875 -0.046875 C 9.988281 0.253906 9.039062 0.40625 8.03125 0.40625 C 7.257812 0.40625 6.507812 0.304688 5.78125 0.109375 C 5.0625 -0.0859375 4.390625 -0.359375 3.765625 -0.703125 C 3.148438 -1.046875 2.613281 -1.457031 2.15625 -1.9375 C 1.707031 -2.414062 1.367188 -2.953125 1.140625 -3.546875 C 1.710938 -3.816406 2.34375 -4.117188 3.03125 -4.453125 C 3.71875 -4.785156 4.320312 -5.085938 4.84375 -5.359375 C 5.070312 -4.992188 5.421875 -4.65625 5.890625 -4.34375 C 6.359375 -4.039062 7 -3.890625 7.8125 -3.890625 C 8.644531 -3.890625 9.257812 -4.082031 9.65625 -4.46875 C 10.050781 -4.863281 10.25 -5.238281 10.25 -5.59375 C 10.25 -5.832031 10.113281 -6.054688 9.84375 -6.265625 C 9.570312 -6.484375 9.265625 -6.648438 8.921875 -6.765625 C 8.421875 -6.960938 8.007812 -7.066406 7.6875 -7.078125 C 7.375 -7.097656 7.007812 -7.164062 6.59375 -7.28125 C 5.257812 -7.601562 4.238281 -8.03125 3.53125 -8.5625 C 2.832031 -9.09375 2.320312 -9.628906 2 -10.171875 C 1.675781 -10.710938 1.492188 -11.226562 1.453125 -11.71875 C 1.421875 -12.21875 1.40625 -12.613281 1.40625 -12.90625 C 1.40625 -13.695312 1.578125 -14.453125 1.921875 -15.171875 C 2.265625 -15.890625 2.738281 -16.507812 3.34375 -17.03125 C 3.945312 -17.5625 4.648438 -17.988281 5.453125 -18.3125 C 6.253906 -18.632812 7.113281 -18.796875 8.03125 -18.796875 C 8.789062 -18.796875 9.515625 -18.679688 10.203125 -18.453125 C 10.898438 -18.234375 11.53125 -17.925781 12.09375 -17.53125 C 12.664062 -17.144531 13.15625 -16.675781 13.5625 -16.125 C 13.96875 -15.582031 14.269531 -14.976562 14.46875 -14.3125 L 10.515625 -12.984375 C 10.359375 -13.429688 10.050781 -13.789062 9.59375 -14.0625 C 9.144531 -14.332031 8.660156 -14.46875 8.140625 -14.46875 C 7.617188 -14.46875 7.195312 -14.296875 6.875 -13.953125 C 6.5625 -13.609375 6.40625 -13.257812 6.40625 -12.90625 C 6.40625 -12.488281 6.554688 -12.160156 6.859375 -11.921875 C 7.171875 -11.691406 7.507812 -11.53125 7.875 -11.4375 C 8.144531 -11.382812 8.410156 -11.335938 8.671875 -11.296875 C 8.929688 -11.265625 9.1875 -11.222656 9.4375 -11.171875 C 10.300781 -10.972656 11.046875 -10.75 11.671875 -10.5 C 12.296875 -10.257812 12.84375 -9.96875 13.3125 -9.625 Z M 13.3125 -9.625 "/></g></g></g></svg>